<!-- Placeholder SVG for PWA icons - Replace with your logo -->
<svg width="512" height="512" viewBox="0 0 512 512" fill="none" xmlns="http://www.w3.org/2000/svg">
  <rect width="512" height="512" rx="115" fill="#2563eb"/>
  <path d="M256 96C185.308 96 128 153.308 128 224C128 294.692 185.308 352 256 352C326.692 352 384 294.692 384 224C384 153.308 326.692 96 256 96Z" fill="white"/>
  <path d="M256 128C202.144 128 160 170.144 160 224C160 277.856 202.144 320 256 320C309.856 320 352 277.856 352 224C352 170.144 309.856 128 256 128Z" fill="#2563eb"/>
  <rect x="192" y="192" width="128" height="32" rx="8" fill="white"/>
  <rect x="192" y="240" width="96" height="32" rx="8" fill="white"/>
  <path d="M256 384L280 416H232L256 384Z" fill="white"/>
</svg>
